<svg id="Layer_1" enable-background="new 0 0 513.28 513.28" height="512" viewBox="0 0 513.28 513.28" width="512" xmlns="http://www.w3.org/2000/svg"><g><path d="m109.64 88.33h294v313.23h-294z" fill="#bfedb3"/><path d="m160.64 194.278h116v162.667h-116z" fill="#fff"/><path d="m236.64 132.945v61.333h30.519c5.236 0 9.481 4.245 9.481 9.481v91.853h76v-162.667z" fill="#fff"/><path d="m403.64 38.77v49.56h-294v-49.56c0-17.27 14-31.27 31.27-31.27h231.46c17.27 0 31.27 14 31.27 31.27z" fill="#e3edf6"/><path d="m403.64 401.56v72.95c0 17.27-14 31.27-31.27 31.27h-231.46c-17.27 0-31.27-14-31.27-31.27v-72.95z" fill="#e3edf6"/><path d="m242.467 275.612-21.113 26.797-21.112-26.797 21.112-26.797z" fill="#ea5172"/><circle cx="256.64" cy="453.921" fill="#e3edf6" r="22.281"/><path d="m109.64 88.33h20v313.23h-20z" fill="#0ea8b2"/><path d="m160.64 194.278h20v162.667h-20z" fill="#e3edf6"/><g><g><g><path d="m236.64 132.945h20v61.333h-20z" fill="#e3edf6"/></g><g><path d="m287.159 194.278h-20c5.236 0 9.481 4.245 9.481 9.481v91.853h20v-91.853c0-5.236-4.245-9.481-9.481-9.481z" fill="#e3edf6"/></g></g></g><path d="m160.91 7.5h-20c-17.27 0-31.27 14-31.27 31.27v49.56h20v-49.56c0-17.27 14-31.27 31.27-31.27z" fill="#a8c6e2"/><path d="m129.64 474.51v-72.95h-20v72.95c0 17.27 14 31.27 31.27 31.27h20c-17.27 0-31.27-14-31.27-31.27z" fill="#a8c6e2"/><path d="m220.242 275.612 11.112-14.105-10-12.692-21.112 26.797 21.112 26.797 10-12.693z" fill="#b3387f"/><path d="m254.359 453.921c0-8.708 4.999-16.245 12.281-19.91-14.698-7.397-32.281 3.261-32.281 19.91 0 16.652 17.585 27.306 32.281 19.91-7.282-3.665-12.281-11.201-12.281-19.91z" fill="#a8c6e2"/><g><path d="m190.694 275.612 30.66 38.916 30.661-38.916-30.661-38.916zm30.66 14.678-11.564-14.678 11.564-14.678 11.564 14.678z"/><path d="m153.14 364.445h131v-177.667h-131zm15-162.667h101v147.667h-101z"/><path d="m256.64 483.703c16.422 0 29.781-13.36 29.781-29.781s-13.359-29.781-29.781-29.781c-16.421 0-29.781 13.36-29.781 29.781s13.36 29.781 29.781 29.781zm0-44.563c8.15 0 14.781 6.631 14.781 14.781s-6.631 14.781-14.781 14.781-14.781-6.631-14.781-14.781 6.631-14.781 14.781-14.781z"/><path d="m372.371 0h-231.461c-21.378 0-38.77 17.392-38.77 38.77v296h15v-238.94h279v46.12h15c0-17.449 0-77.034 0-103.18 0-21.378-17.391-38.77-38.769-38.77zm-255.231 80.83v-42.06c0-13.107 10.663-23.77 23.77-23.77h231.46c13.106 0 23.77 10.663 23.77 23.77v42.06z"/><path d="m396.14 394.06h-279v-44.29h-15v124.74c0 21.378 17.392 38.77 38.77 38.77h231.46c21.378 0 38.77-17.392 38.77-38.77v-317.56h-15zm0 80.45c0 13.107-10.663 23.77-23.77 23.77h-231.46c-13.107 0-23.77-10.663-23.77-23.77v-65.45h279z"/><path d="m306.64 288.11v15h53.5v-177.67h-131v38.84h15v-23.84h101v147.67z"/></g><path d="m308.64 55.415h-15v-15h15zm-45 0h-15v-15h15zm-45 0h-15v-15h15z"/></g></svg>